<svg xmlns="http://www.w3.org/2000/svg" viewBox="0 0 161.76 161.76">
  <path fill="#1bc25a" d="m80.88,0C36.21,0,0,36.21,0,80.88s36.21,80.88,80.88,80.88,80.88-36.21,80.88-80.88S125.56,0,80.88,0Zm68.22,64.71h-23.77c-4.29,0-8.4,1.7-11.44,4.74l-36.98,36.98c-.91.91-2.14,1.42-3.43,1.42H16.16c-1.44-3.46-2.62-7.07-3.5-10.78h23.77c4.29,0,8.4-1.7,11.44-4.74l36.98-36.98c.91-.91,2.14-1.42,3.43-1.42h57.32c1.44,3.46,2.62,7.07,3.5,10.78ZM80.88,10.78c19.88,0,37.82,8.28,50.58,21.57h-38.49c-4.29,0-8.4,1.7-11.44,4.74l-36.98,36.98c-.91.91-2.14,1.42-3.43,1.42H10.99C13.74,39.3,43.98,10.78,80.88,10.78Zm0,140.2c-19.88,0-37.82-8.28-50.58-21.57h38.49c4.29,0,8.4-1.7,11.44-4.74l36.98-36.98c.91-.91,2.14-1.42,3.43-1.42h30.14c-2.75,36.2-33,64.71-69.9,64.71Z"/>
</svg>
