<!-- Generator: Adobe Illustrator 24.3.0, SVG Export Plug-In  -->
<svg version="1.1" xmlns="http://www.w3.org/2000/svg" xmlns:xlink="http://www.w3.org/1999/xlink" x="0px" y="0px" width="280px"
	 height="101.63px" viewBox="0 0 280 101.63" style="overflow:visible;enable-background:new 0 0 280 101.63;" xml:space="preserve"
	>
<style type="text/css">
	.st0{fill:#19294B;}
	.st1{fill:#B0282B;}
</style>
<defs>
</defs>
<g>
	<g>
		<g>
			<g>
				<g>
					<path class="st0" d="M79.64,56.14c-0.74-3.05-2.69-5.24-4.94-6.84c-2.25-1.6-5.22-2.4-8.91-2.4c-5.12,0-9.09,1.55-11.91,4.64
						c-2.83,3.09-4.24,7.57-4.24,13.45c0,3.69,0.69,6.85,2.07,9.48c1.38,2.63,3.31,4.62,5.81,5.97c2.49,1.36,5.41,2.04,8.74,2.04
						c2.54,0,4.79-0.21,6.77-0.63c1.9-0.4,3.38-0.83,4.87-1.45c0.12-0.05,0.2-0.17,0.19-0.3l-0.06-6.84c0-0.25-0.28-0.4-0.48-0.26
						c-0.54,0.35-1.14,0.58-1.98,0.9c-1.09,0.42-2.27,0.77-3.54,1.03c-1.27,0.27-2.61,0.4-4.04,0.4c-3.38,0-5.88-0.91-7.51-2.74
						c-1.25-1.4-1.81-2.46-2.1-4.85c-0.01-0.09,0.06-0.18,0.16-0.18l21.43,0c0.17,0,0.31-0.14,0.31-0.31
						C80.33,63.29,80.36,59.1,79.64,56.14z M61.56,54.54c1.13-0.69,2.46-1.03,3.97-1.03c2.49,0,4.31,0.77,5.47,2.3
						c0.85,1.13,1.41,2.79,1.68,4.99c0.01,0.09-0.06,0.18-0.16,0.18l-14.08,0c-0.1,0-0.17-0.09-0.16-0.18
						c0.15-1.09,0.37-2.03,0.67-2.82C59.56,56.37,60.43,55.23,61.56,54.54z"/>
					<path class="st0" d="M84.83,51.09c0-0.19,0.11-0.37,0.28-0.45c0.87-0.4,1.89-0.8,3.05-1.2c1.29-0.44,2.69-0.83,4.2-1.17
						c1.51-0.33,3.04-0.6,4.57-0.8c1.53-0.2,2.99-0.3,4.37-0.3c3.11,0,5.69,0.41,7.74,1.23c2.05,0.82,3.6,2.11,4.67,3.87
						c1.07,1.76,1.6,4.06,1.6,6.91v22.11c0,0.17-0.14,0.31-0.31,0.31h-7.78c-0.17,0-0.31-0.14-0.31-0.31V60.65
						c0-0.84-0.11-1.66-0.33-2.44c-0.22-0.78-0.6-1.47-1.13-2.07c-0.53-0.6-1.27-1.08-2.2-1.43c-0.93-0.36-2.14-0.53-3.6-0.53
						c-1.11,0-2.25,0.12-3.4,0.37c-1.06,0.23-2,0.48-2.8,0.76c-0.13,0.04-0.21,0.16-0.21,0.3l0,25.69c0,0.17-0.14,0.31-0.31,0.31
						h-7.78c-0.17,0-0.31-0.14-0.31-0.31L84.83,51.09z"/>
					<path class="st0" d="M156.09,82.61c-5.52,0-9.65-1.53-12.41-4.6c-2.76-3.07-4.14-7.5-4.14-13.28c0-6.18,1.41-10.68,4.24-13.48
						c2.82-2.8,6.91-4.2,12.25-4.2c3.74,0,6.85,0.66,9.34,1.97c2.49,1.31,4.35,3.28,5.57,5.91c1.22,2.63,1.84,5.9,1.84,9.81
						c0,5.78-1.43,10.21-4.3,13.28C165.6,81.07,161.47,82.61,156.09,82.61z M156.09,75.73c1.96,0,3.55-0.46,4.77-1.37
						c1.22-0.91,2.12-2.18,2.7-3.8c0.58-1.62,0.87-3.57,0.87-5.84c0-2.54-0.3-4.6-0.9-6.21c-0.6-1.6-1.51-2.78-2.74-3.54
						c-1.22-0.76-2.79-1.13-4.7-1.13c-1.96,0-3.55,0.4-4.77,1.2c-1.22,0.8-2.1,2-2.64,3.6c-0.53,1.6-0.8,3.63-0.8,6.07
						c0,3.56,0.63,6.28,1.9,8.17C151.05,74.79,153.16,75.73,156.09,75.73z"/>
				</g>
				<g>
					<path class="st0" d="M39.14,41.04l-8.05,3.75c-0.11,0.05-0.18,0.16-0.18,0.29v27.58c0,3.25,0.91,5.73,2.74,7.44
						c1.82,1.71,4.45,2.57,7.87,2.57c0.98,0,1.99-0.09,3.04-0.27c0.97-0.17,1.86-0.45,2.66-0.85c0.11-0.05,0.17-0.16,0.17-0.28
						v-6.53c0-0.24-0.25-0.39-0.46-0.28c-0.44,0.23-0.94,0.43-1.51,0.59c-0.78,0.22-1.52,0.33-2.24,0.33c-1.33,0-2.27-0.33-2.8-1
						c-0.53-0.67-0.8-1.69-0.8-3.07V54.96c0-0.17,0.14-0.31,0.31-0.31h7.18c0.17,0,0.31-0.14,0.31-0.31v-6.04
						c0-0.17-0.14-0.31-0.31-0.31H39.9c-0.17,0-0.31-0.14-0.31-0.31v-6.33C39.59,41.1,39.35,40.94,39.14,41.04z"/>
					<path class="st0" d="M129.1,41.04l-8.04,3.75c-0.11,0.05-0.18,0.16-0.18,0.29v27.59c0,3.25,0.91,5.73,2.74,7.44
						c1.82,1.71,4.45,2.57,7.87,2.57c0.98,0,1.99-0.09,3.04-0.27c0.97-0.17,1.86-0.45,2.66-0.85c0.11-0.05,0.17-0.16,0.17-0.28
						l0-6.53c0-0.24-0.25-0.39-0.46-0.28c-0.44,0.23-0.94,0.43-1.51,0.59c-0.78,0.22-1.52,0.33-2.24,0.33c-1.33,0-2.27-0.33-2.8-1
						c-0.53-0.67-0.8-1.69-0.8-3.07V54.96c0-0.17,0.14-0.31,0.31-0.31h7.18c0.17,0,0.31-0.14,0.31-0.31v-6.04
						c0-0.17-0.14-0.31-0.31-0.31h-7.18c-0.17,0-0.31-0.14-0.31-0.31l-0.01-6.33C129.55,41.1,129.31,40.94,129.1,41.04z"/>
					<path class="st0" d="M15.03,59.25l10.07-8.6c0.07-0.06,0.1-0.14,0.1-0.23v-5.13c0-0.17-0.14-0.31-0.31-0.31H2.57
						c-0.17,0-0.31,0.14-0.31,0.31v6.28c0,0.17,0.14,0.31,0.31,0.31h10.51c0.14,0,0.21,0.17,0.11,0.27L4.7,59.71
						c-0.12,0.12-0.19,0.28-0.19,0.45v5.11c0,0.17,0.14,0.31,0.31,0.31h3.96c5.31,0,8.21,2.42,8.21,5.24c0,3.03-2.89,4.79-7.56,4.79
						c-3.14,0-6.3-0.69-8.98-1.91C0.24,73.6,0,73.75,0,73.98l0,7.22c0,0.14,0.09,0.26,0.23,0.3c2.95,0.87,6.22,1.34,9.43,1.34
						c11.49,0,16.74-5.74,16.74-12.02c0-5.4-4.23-10.15-11.29-11.3C14.98,59.5,14.93,59.34,15.03,59.25z"/>
				</g>
			</g>
			<path class="st0" d="M196.61,64.32c-1.05-0.71-2.16-1.26-3.34-1.64c-1.18-0.38-2.33-0.72-3.44-1.03
				c-1.11-0.31-2.15-0.62-3.1-0.93c-0.96-0.31-1.72-0.76-2.3-1.33c-0.58-0.58-0.87-1.33-0.87-2.27c0-1.07,0.48-1.9,1.43-2.5
				c0.96-0.6,2.3-0.9,4.04-0.9c1.91,0,3.59,0.33,5.04,1c1.1,0.51,2.23,1.07,3.39,1.68c0.21,0.11,0.46-0.04,0.46-0.28v-6.1
				c0-0.12-0.06-0.23-0.17-0.28c-1.14-0.6-2.33-1.11-3.59-1.52c-1.56-0.51-3.6-0.81-6.14-0.9c-1.47,0-2.98,0.19-4.54,0.57
				c-1.56,0.38-2.98,0.99-4.27,1.84c-1.29,0.85-2.34,1.96-3.14,3.34c-0.8,1.38-1.2,3.07-1.2,5.07c0,1.69,0.28,3.13,0.83,4.3
				c0.56,1.18,1.3,2.15,2.24,2.9c0.93,0.76,1.97,1.36,3.1,1.8c1.13,0.44,2.28,0.8,3.44,1.07c1.16,0.36,2.27,0.71,3.34,1.07
				c1.07,0.36,1.95,0.79,2.64,1.3c0.69,0.51,1.03,1.23,1.03,2.17c0,0.98-0.45,1.81-1.33,2.5c-0.89,0.69-2.23,1.03-4,1.03
				c-1.51,0-2.93-0.18-4.24-0.53c-1.31-0.36-2.54-0.83-3.67-1.43c-0.96-0.51-1.88-1.04-2.76-1.59c-0.21-0.13-0.48,0.02-0.48,0.26
				v6.83c0,0.12,0.07,0.24,0.19,0.29c1.5,0.68,3.06,1.26,4.69,1.75c1.69,0.51,3.74,0.77,6.14,0.77c2.36,0,4.62-0.36,6.77-1.07
				c2.16-0.71,3.9-1.86,5.24-3.44c1.33-1.58,2.02-3.66,2.07-6.24c0-1.96-0.32-3.53-0.97-4.7C198.5,65.98,197.65,65.03,196.61,64.32z
				"/>
		</g>
	</g>
	<g>
		<path class="st1" d="M279.59,0.03c0.19-0.09,0.41,0.05,0.41,0.26v17.09c0,6.88-4.03,13.2-10.26,16.11l-42.55,19.84
			c-3.79,1.77-6.23,5.6-6.23,9.78v1.34c0,0.28-0.16,0.53-0.41,0.64l-6.16,2.89c-0.19,0.09-0.41-0.05-0.41-0.26V63.1
			c0-6.88,4.03-13.2,10.26-16.11l42.55-19.84c3.79-1.77,6.23-5.6,6.23-9.78v-6.56l-45.93,21.51c-3.77,1.77-6.21,5.6-6.21,9.77v1.33
			c0,0.28-0.16,0.53-0.41,0.64l-6.16,2.89c-0.19,0.09-0.41-0.05-0.41-0.26v-4.6c0-6.86,4.02-13.18,10.23-16.09L279.59,0.03z
			 M214.31,101.6c-0.19,0.09-0.41-0.05-0.41-0.26V84.25c0-6.88,4.03-13.2,10.26-16.11l42.55-19.84c3.79-1.77,6.23-5.6,6.23-9.78
			v-1.34c0-0.28,0.16-0.53,0.41-0.64l6.16-2.89c0.19-0.09,0.41,0.05,0.41,0.26v4.61c0,6.88-4.03,13.2-10.26,16.11l-42.55,19.84
			c-3.79,1.77-6.23,5.6-6.23,9.78v6.56l45.93-21.51c3.77-1.77,6.21-5.6,6.21-9.77V58.2c0-0.28,0.16-0.53,0.41-0.64l6.16-2.89
			c0.19-0.09,0.41,0.05,0.41,0.26v4.6c0,6.86-4.02,13.18-10.23,16.09L214.31,101.6z"/>
	</g>
</g>
</svg>
