<svg width="181" height="31" viewBox="0 0 181 31" fill="none" xmlns="http://www.w3.org/2000/svg"><path d="M45.298 21.523V1.371a.187.187 0 00-.188-.187h-6.434a.187.187 0 00-.188.187v20.743c0 4.602 3.767 8.333 8.416 8.333H59.45a.187.187 0 00.188-.186l.015-5.333a.19.19 0 00-.192-.187l-10.888.02c-1.808.007-3.279-1.447-3.279-3.238m27.345 8.927h-6.243a.261.261 0 01-.262-.259V1.435c0-.143.118-.26.262-.26h6.243c.144 0 .261.117.261.26V30.19c0 .143-.117.26-.261.26zm59.445-23.976V1.368a.19.19 0 00-.189-.187h-21.298a.185.185 0 00-.188.187v21.02c0 4.45 3.644 8.06 8.134 8.06h14.046a.19.19 0 00.189-.187l.011-5.138a.186.186 0 00-.188-.186h-12.168c-1.908 0-3.461-1.535-3.461-3.428v-3.452a.19.19 0 01.189-.186h12.367a.19.19 0 00.189-.187v-4.596a.187.187 0 00-.189-.186h-12.367a.19.19 0 01-.189-.187V6.85a.19.19 0 01.189-.186h14.734a.19.19 0 00.189-.187M95.95 25.03c-.102 0-8.365.003-9.532 0a.173.173 0 01-.17-.175v-6.821c0-.096.076-.175.17-.175 1.076.003 7.363 0 9.53 0 2.167 0 3.555 1.602 3.555 3.382 0 1.995-1.388 3.786-3.555 3.786M86.25 6.788c0-.108.085-.195.189-.195h8.46c3.028 0 3.46 2.473 3.46 3.364s-.65 3.35-3.46 3.291h-8.46a.192.192 0 01-.189-.195V6.788zm15.594 7.972h-.003a.192.192 0 01-.041-.294l.014-.015c4.532-4.724 1.141-13.267-5.44-13.267H79.858a.189.189 0 00-.189.187v28.89c0 .102.083.186.189.186h16.56c11.004 0 11.565-12.451 5.426-15.687zm57.701 5.621s4.393-13.456 4.634-14.295c1.044-3.65 4.161-5.525 7.366-5.525 7.263 0 7.722 6.798 7.722 6.798s1.329 19.014 1.685 22.902a.188.188 0 01-.189.204h-6.392c-.1 0-.18-.076-.188-.175l-1.63-22.532c-.076-.457-.444-.935-.99-.935-.453 0-.886.33-1.062 1.017-.041.16-5.731 17.781-6.013 18.518-.512 1.337-1.682 3.574-4.94 3.574-3.258 0-4.429-2.237-4.94-3.574-.283-.734-5.972-18.358-6.014-18.518-.176-.688-.608-1.017-1.061-1.017-.547 0-.915.478-.994.935L144.91 30.29a.186.186 0 01-.188.175h-6.393a.187.187 0 01-.188-.204c.359-3.888 1.688-22.902 1.688-22.902s.459-6.798 7.722-6.798c3.205 0 6.322 1.879 7.363 5.525.238.839 4.634 14.295 4.634 14.295M25.72 22.98c-.996-.813-4.56-2.226-7.824-2.226-3.264 0-6.825 1.413-7.822 2.225-.144.117-.37-.011-.32-.186.438-1.52 2.155-9.39 4.987-14.05.796-1.314 1.976-1.96 3.155-1.987 1.182.026 2.258.667 3.043 1.987 2.697 4.517 4.66 12.53 5.099 14.05.053.175-.18.306-.32.186m9.118 7.241c-.826-2.816-4.21-16.488-7.822-23.717-2.67-5.348-6.68-6.038-9.118-6.038-2.438 0-6.437.795-9.227 6.038-3.28 6.169-6.814 20.414-7.71 23.717-.033.117.061.23.182.23h6.504a.22.22 0 00.17-.078c.468-.597 4.044-4.492 10.08-4.492 6.038 0 9.616 3.898 10.08 4.492.039.05.1.078.171.078h6.505c.12 0 .217-.113.182-.23" fill="#1a1a1a"/></svg>