<svg width="203" height="68" fill="none" xmlns="http://www.w3.org/2000/svg"><g clip-path="url(#clip0_948_1036)" fill-rule="evenodd" clip-rule="evenodd" fill="#E30000"><path d="M177.184 41.578h-13.441v-.192l14.763-14.87a66.327 66.327 0 004.53-5.086c1.504-1.986 1.914-4.926 1.914-4.926h-28.193l-1.839 6.02h14.186v.189l-20.755 20.979-1.707 5.514h28.193l2.349-7.628zM27.43 38.906h4.95c-2.501 3.43-5.338 6.005-8.51 7.723a21.785 21.785 0 01-10.533 2.574c-4.291 0-7.588-.876-9.89-2.627C1.144 44.825-.005 42.293 0 38.98c0-3.653 1.181-7.263 3.543-10.832a26.693 26.693 0 018.971-8.5 22.212 22.212 0 0111.284-3.162c3.393 0 5.898.722 7.514 2.167a6.773 6.773 0 012.423 5.257 6.533 6.533 0 01-1.33 4.053 4.406 4.406 0 01-3.727 1.76 4.868 4.868 0 01-3.055-1.069c-.912-.713-1.369-1.806-1.369-3.279a6.881 6.881 0 01.335-2.035c.165-.443.267-.906.303-1.376a1.497 1.497 0 00-.655-1.33 3.628 3.628 0 00-2.007-.445c-1.525 0-3.03.74-4.516 2.22-1.485 1.48-2.871 4.086-4.16 7.817-1.287 3.728-1.93 6.58-1.928 8.554.003 1.975.426 3.454 1.27 4.438.845.983 2.118 1.476 3.817 1.479a11.163 11.163 0 005.346-1.444 21.45 21.45 0 005.371-4.348zM75.268 36.6a8.412 8.412 0 00-.335 2.26c0 1.953.425 3.423 1.273 4.412.848.988 2.123 1.483 3.824 1.483a10.896 10.896 0 005.265-1.469 22.62 22.62 0 005.467-4.39h4.99c-2 2.915-4.78 5.362-8.337 7.341a23.57 23.57 0 01-11.637 2.966c-3.616 0-6.596-.792-8.939-2.374-2.343-1.583-3.517-4.042-3.521-7.378 0-5.41 2.672-10.588 8.016-15.533 5.343-4.944 11.202-7.422 17.575-7.431 2.775 0 4.85.506 6.223 1.518 1.373 1.012 2.055 2.54 2.046 4.58 0 3.208-2.01 6.106-6.031 8.693-4.02 2.588-9.313 4.362-15.879 5.322zm.88-3.896a15.383 15.383 0 008.174-3.892c2.392-2.153 3.589-4.267 3.589-6.34a2.366 2.366 0 00-.563-1.726 2.258 2.258 0 00-1.686-.574c-1.775 0-3.511 1.112-5.208 3.336-1.696 2.224-3.131 5.29-4.305 9.196zm31.01 16.5L122.437-.004H111.21c-.103.52-15.18 49.208-15.18 49.208h11.128zM65.732 17.753a4.278 4.278 0 00-3.126-1.265c-3.543 0-7.576 3.683-12.1 11.049l3.432-11.05H42.792L32.642 49.19h11.32c1.245-4.74 3.355-9.902 6.33-15.486 2.974-5.584 5.325-8.376 7.05-8.376.499 0 1.012.4 1.532 1.19a3.232 3.232 0 002.926 1.65c1.471 0 2.707-.712 3.707-2.138a8.17 8.17 0 001.5-4.819c0-1.468-.423-2.623-1.275-3.457zm76.966 31.371l9.851-32.637h-10.938c-1.847 6.58-4.321 12.391-7.425 17.436-3.103 5.044-5.538 7.58-7.306 7.606-.713 0-1.091-.413-1.091-1.237 0-.281.517-2.167 1.536-5.66l1.618-5.417 3.878-12.728h-11.234l-2.52 8.476c-.057.203-.103.395-.171.62l-3.447 11.594c-.948 3.133-1.425 5.175-1.425 6.123a6.317 6.317 0 001.386 4.1c.927 1.14 2.316 1.71 4.167 1.71 6.116 0 11.911-5.16 17.386-15.48-.075.332-.253 1.03-.524 2.082-1.022 3.697-1.534 6.2-1.536 7.506 0 1.982.545 3.468 1.647 4.466 1.101.998 2.733 1.505 4.907 1.505.415.002.829-.02 1.241-.065zm55.063-21.964a5.328 5.328 0 115.243-5.321 5.292 5.292 0 01-5.243 5.321zm0-10.14a4.816 4.816 0 104.73 4.819 4.783 4.783 0 00-1.367-3.39 4.769 4.769 0 00-3.363-1.429z"/><path d="M199.722 20.675c.009.37-.109.732-.335 1.026a2.005 2.005 0 01-1.034.62l1.718 2.374h-1.269l-1.568-2.235h-.713v2.235h-1.052v-5.753h1.754c.271 0 .541.016.809.05.22.026.437.076.645.15.312.11.583.31.781.574.188.283.28.619.264.959zm-2.691.916c.204.003.409-.007.613-.033.145-.013.287-.046.424-.096a.819.819 0 00.445-.328.962.962 0 00.122-.477.85.85 0 00-.097-.414.678.678 0 00-.331-.285 1.49 1.49 0 00-.374-.1 4.294 4.294 0 00-.571-.032h-.755v1.765h.524zm-26.579 42.615a.961.961 0 01-1.041-1.044c0-.923.545-1.54 1.304-1.54a.975.975 0 011.045 1.07c0 .894-.538 1.514-1.308 1.514zm1.803-4.031l-.132.656c-.356-.528-.941-.749-1.682-.749-1.64 0-2.976 1.348-2.976 3.172 0 1.6 1.133 2.495 2.32 2.495a2.251 2.251 0 001.59-.609l-.114.517h1.835l1.095-5.49-1.936.008zm-7.577-.093a2.497 2.497 0 00-1.722.66l.111-.567h-1.822l-1.094 5.5h1.925l.545-2.716c.175-.838.631-1.234 1.287-1.234.517 0 .759.253.759.713-.001.12-.014.24-.039.357l-.567 2.851h1.925l.606-3.037c.048-.223.072-.452.071-.68.018-1.209-.809-1.847-1.985-1.847zm-7.688 5.593h1.914l1.094-5.49h-1.914l-1.094 5.49zm2.32-6.099a1.132 1.132 0 001.247-1.123c0-.527-.438-.923-1.115-.923a1.13 1.13 0 00-1.132.646 1.127 1.127 0 00-.105.449c0 .516.424.94 1.105.94v.011zm-4.79.517a2.596 2.596 0 00-2.018.891 1.784 1.784 0 00-1.65-.891 2.336 2.336 0 00-1.643.649l.114-.556h-1.825l-1.094 5.489h1.925l.548-2.745c.172-.852.589-1.205 1.173-1.205a.645.645 0 01.692.738c0 .126-.014.252-.043.374l-.578 2.852h1.925l.556-2.766c.175-.841.588-1.183 1.166-1.183a.635.635 0 01.663.432c.03.09.04.186.028.28.001.13-.014.26-.043.386l-.566 2.837h1.924l.599-3.037c.047-.224.071-.452.071-.68 0-1.238-.812-1.876-1.924-1.876v.011zm-10.183.093l-.546 2.712c-.164.83-.616 1.226-1.265 1.226a.646.646 0 01-.707-.42.659.659 0 01-.034-.293c0-.127.014-.254.042-.378l.564-2.85h-1.922l-.609 3.025a3.314 3.314 0 00-.071.68c0 1.234.802 1.876 1.967 1.876.63.005 1.239-.23 1.7-.66l-.11.567h1.825l1.094-5.489-1.928.004zm-8.113 5.489h1.943l1.501-7.517h-1.929l-1.515 7.517zm-3.161 0h1.914l1.094-5.49h-1.914l-1.094 5.49zm2.32-6.099a1.137 1.137 0 001.149-.664c.064-.144.098-.3.099-.459 0-.527-.435-.923-1.116-.923a1.123 1.123 0 00-1.132.646 1.144 1.144 0 00-.105.449c0 .516.425.94 1.105.94v.011zm-8.319 1.886c.621 0 1.034.356 1.027.93h-2.26a1.247 1.247 0 011.233-.941v.01zm2.798 1.04c0-1.425-1.033-2.409-2.705-2.409-1.974 0-3.322 1.347-3.322 3.172 0 1.53 1.155 2.495 2.919 2.495a3.868 3.868 0 002.338-.713l-.798-1.2c-.38.293-.849.45-1.329.445-.76 0-1.173-.285-1.244-.891h4.031c.07-.298.107-.603.11-.91v.011zm-8.276-2.316l-.527 2.701c-.164.83-.617 1.227-1.266 1.227a.648.648 0 01-.741-.713c0-.127.014-.254.039-.378l.567-2.852h-1.925l-.606 3.026c-.046.224-.07.453-.071.681 0 1.234.802 1.875 1.964 1.875a2.472 2.472 0 001.704-.66l-.129.582h1.822l1.094-5.49h-1.925zm-9.855 2.994c0-.923.546-1.54 1.308-1.54a.976.976 0 01.992.65.977.977 0 01.049.42c0 .908-.538 1.528-1.308 1.528a.964.964 0 01-1.041-1.058zm2.937-2.987l-.16.77c-.325-.61-.952-.863-1.743-.863-1.643 0-2.98 1.347-2.98 3.172 0 1.6 1.134 2.495 2.32 2.495.53.01 1.046-.167 1.458-.499l-.474 2.37H115l1.493-7.452-1.825.007zm-11.883 4.031a.964.964 0 01-1.044-1.044c0-.923.549-1.54 1.308-1.54a.969.969 0 01.772.29.969.969 0 01.272.78c0 .876-.538 1.496-1.308 1.496v.018zm1.803-4.031l-.131.656c-.357-.528-.941-.749-1.683-.749-1.639 0-2.976 1.347-2.976 3.172 0 1.6 1.134 2.495 2.32 2.495.59.013 1.16-.206 1.59-.61l-.114.518h1.821l1.095-5.49-1.922.008zm-8.122 5.482h1.914l1.094-5.49h-1.94l-1.068 5.49zm2.32-6.099a1.13 1.13 0 001.244-1.123c0-.527-.435-.923-1.112-.923a1.125 1.125 0 00-1.237 1.095c-.01.516.413.94 1.094.94l.011.011zm-5.371 1.886c.62 0 1.033.356 1.026.93H92.19a1.247 1.247 0 011.215-.941l.01.01zm2.798 1.04c0-1.425-1.034-2.409-2.706-2.409-1.974 0-3.322 1.347-3.322 3.172 0 1.53 1.155 2.495 2.92 2.495a3.87 3.87 0 002.338-.713l-.799-1.2c-.38.293-.849.45-1.33.445-.758 0-1.172-.285-1.243-.891h4.038c.064-.299.095-.604.093-.91l.01.011zm-10.084 1.704a.954.954 0 01-1.033-1.044c0-.923.538-1.54 1.308-1.54a.967.967 0 011.034 1.07c-.008.894-.546 1.514-1.309 1.514zm2.21-6.059l-.538 2.666a1.896 1.896 0 00-1.672-.73c-1.64 0-2.986 1.347-2.986 3.172 0 1.6 1.133 2.494 2.32 2.494a2.26 2.26 0 001.59-.63l-.114.538h1.824l1.5-7.517-1.924.007zm-8.579 7.528h1.914l1.094-5.49h-1.914l-1.094 5.49zm2.32-6.099a1.134 1.134 0 001.248-1.123c0-.527-.439-.923-1.116-.923a1.125 1.125 0 00-1.236 1.095c0 .516.427.94 1.105.94v.011zm-9.135 4.634a.965.965 0 01-1.044-1.045c0-.923.545-1.54 1.308-1.54a.972.972 0 011.04 1.07c0 .891-.537 1.511-1.307 1.511l.003.004zm1.804-4.031l-.132.655c-.356-.527-.945-.748-1.682-.748-1.64 0-2.98 1.347-2.98 3.172 0 1.6 1.133 2.495 2.32 2.495.59.013 1.16-.206 1.59-.61l-.11.517h1.82l1.095-5.488-1.921.007zm-7.51-.097a2.592 2.592 0 00-2.017.891 1.782 1.782 0 00-1.65-.89 2.335 2.335 0 00-1.644.648l.114-.556h-1.824l-1.113 5.5h1.925l.55-2.745c.17-.852.587-1.205 1.172-1.205a.645.645 0 01.691.738c0 .126-.014.252-.043.374l-.577 2.852h1.921l.556-2.766c.171-.841.588-1.183 1.162-1.183a.637.637 0 01.691.712c.001.13-.013.26-.042.386l-.567 2.85h1.925l.599-3.036c.046-.224.07-.452.07-.68.008-1.252-.794-1.89-1.899-1.89zm-12.532 5.724c2.089 0 3.333-1.094 3.76-3.207l.799-4.024h-2.007l-.766 3.892c-.242 1.194-.713 1.671-1.561 1.671-.76 0-1.173-.356-1.173-1.115 0-.187.021-.373.06-.556l.781-3.903h-2.006l-.792 3.92c-.05.248-.077.5-.081.753 0 1.586 1.115 2.57 2.969 2.57h.017z"/></g><defs><clipPath id="clip0_948_1036"><path fill="#333333" d="M0 0h203v67.631H0z"/></clipPath></defs></svg>