<svg width="184" height="28" viewBox="0 0 184 28" fill="none" xmlns="http://www.w3.org/2000/svg">
<g id="Logo" clip-path="url(#clip0_3_44)">
<path id="Vector" d="M1.94089 13.9314L3.86229 0.857117H16.8642L1.94089 13.9314Z" fill="#F58220"/>
<path id="Vector_2" d="M182.306 2.55508H181.968V2.13059H182.299C182.416 2.13059 182.514 2.22202 182.514 2.3461C182.514 2.47018 182.423 2.55508 182.299 2.55508M182.942 2.33957C182.942 1.98038 182.656 1.69957 182.306 1.69957H181.546V3.84161H181.975V2.97957H182.059L182.488 3.84161H182.942L182.494 2.95344C182.754 2.87508 182.942 2.63344 182.942 2.3461M182.118 4.38365C181.228 4.38365 180.508 3.65875 180.508 2.76406C180.508 1.86936 181.228 1.15099 182.118 1.15099C183.007 1.15099 183.721 1.87589 183.721 2.76406C183.721 3.65875 183 4.37712 182.118 4.38365ZM182.118 0.876709C181.072 0.876709 180.235 1.72569 180.235 2.77059C180.235 3.81549 181.072 4.66447 182.118 4.66447C183.163 4.66447 184 3.81549 184 2.77059C184 1.72569 183.156 0.876709 182.118 0.876709ZM128.357 11.9657L128.812 8.90283C128.89 8.38692 129.35 7.96896 129.863 7.92977H131.441H136.978L137.568 3.88732H129.532C127.332 3.89385 125.287 5.68324 124.936 7.88406L123.145 20.031V20.0506C122.814 22.2775 124.352 24.0865 126.566 24.0865H134.595L135.186 20.0506H128.15C127.637 20.0375 127.254 19.6 127.293 19.0841V19.1037V19.0775V19.0645V19.0514L127.741 16.0147H135.777L136.367 11.9788H128.338V11.9657H128.357ZM176.697 9.94773C176.535 11.0645 175.497 11.9722 174.387 11.9722H174.412H174.231H171.232L171.829 7.92977H174.977C176.087 7.92977 176.86 8.83753 176.691 9.95426M175.568 3.88732H168.415L165.442 24.0865H169.453L170.641 16.0081H171.712L174.575 24.0865H178.593L175.626 15.7273C178.184 14.9502 180.294 12.6514 180.689 9.9412C181.183 6.59753 178.885 3.88079 175.561 3.88079M56.1295 19.0906V19.1102V19.0841V19.0906V19.071V19.0579L56.5774 16.0212L58.3625 3.89385H54.351L51.9687 20.0375V20.0571C51.6376 22.2841 53.176 24.093 55.396 24.093H63.4257L64.0164 20.0571H56.9799C56.4671 20.0441 56.0841 19.6065 56.1231 19.0906M141.859 16.0147H145.15C146.169 16.0996 146.851 16.9681 146.695 18.0261C146.533 19.1428 145.501 20.0506 144.391 20.0506H144.417H144.235H141.262L141.859 16.0081V16.0147ZM143.053 7.92977H146.202C147.318 7.92977 148.084 8.83753 147.922 9.95426C147.76 11.0579 146.747 11.9526 145.65 11.9722H142.463L143.06 7.92977H143.053ZM140.671 24.093H143.787C147.11 24.093 150.2 21.3698 150.694 18.0261C150.927 16.4849 150.557 15.0743 149.765 14.0098C150.888 12.9388 151.68 11.5086 151.914 9.95426C152.407 6.61059 150.109 3.89385 146.786 3.89385H139.626L136.653 24.093H140.671ZM90.4616 9.94773C90.2993 11.0645 89.2607 11.9722 88.1572 11.9722H88.1832H88.0014H85.0025L85.5997 7.92977H88.7479C89.8579 7.92977 90.6304 8.831 90.4616 9.94773ZM94.4602 9.94773C94.9535 6.60406 92.6556 3.88732 89.3321 3.88732H82.1788L79.2058 24.0865H83.2239L84.4118 16.0081H85.4828L88.3455 24.0865H92.3635L89.4035 15.7273C91.9611 14.9502 94.0707 12.6514 94.4667 9.9412M118.711 0.876709L116.18 18.111L113.512 0.883239L108.286 0.876709L100.491 18.2481L103.055 0.876709H97.8356L93.9733 27.1428H101.73L109.63 9.5363L112.356 27.1428H120.075L123.93 0.876709H118.711ZM70.9035 11.9657L71.3514 8.90283C71.4358 8.38692 71.8967 7.96896 72.403 7.92977H73.9869H79.5239L80.1146 3.88732H72.0785C69.8779 3.89385 67.8332 5.68324 67.4892 7.88406H67.4762L65.6911 20.031V20.0506C65.36 22.2775 66.8985 24.0865 69.1185 24.0865H77.1481L77.7388 20.0506H70.6958C70.1895 20.0375 69.8 19.6 69.8455 19.0841V19.1037V19.0775V19.0645V19.0514L70.2934 16.0147H78.3295L78.9202 11.9788H70.8841V11.9657H70.9035ZM28.1199 0.857117H19.2529L1.54491 16.6155L0 27.1233H5.21894L6.21858 20.3183L9.69788 17.2228L17.7535 27.1167H24.1668L13.5796 13.7681L28.1199 0.857117ZM151.933 20.0375V20.0571C151.602 22.2841 153.141 24.093 155.361 24.093H163.39L163.981 20.0571H156.945C156.438 20.0441 156.049 19.6065 156.094 19.0906V19.1102V19.0841V19.071V19.0579L156.542 16.0212H164.578L165.169 11.9853H157.139V11.9722L157.594 8.90936C157.678 8.39345 158.139 7.97549 158.645 7.9363H160.223H165.76L166.35 3.89385H158.314C156.114 3.90038 154.069 5.68977 153.725 7.89059H153.718L151.933 20.0375ZM36.7533 11.9788H28.7236V11.9657L29.178 8.90283C29.2559 8.38692 29.7168 7.96896 30.2296 7.92977H31.807H37.344L37.9347 3.88732H29.8985C27.698 3.89385 25.6533 5.68324 25.3093 7.88406H25.3028L23.5112 20.031V20.0506C23.1801 22.2775 24.725 24.0865 26.9385 24.0865H34.9747L35.5654 20.0506H28.5289C28.0161 20.0375 27.6331 19.6 27.6785 19.0841V19.1037V19.0775V19.0645V19.0514L28.1264 16.0147H36.1561L36.7468 11.9788H36.7533ZM47.9182 9.94773C47.7559 11.0645 46.7173 11.9722 45.6073 11.9722H45.6397H45.458H42.459L43.0562 7.92977H46.2045C47.3145 7.92977 48.0869 8.83753 47.9182 9.95426M46.7822 3.88732H39.6289L36.6559 24.0865H40.674L41.8619 16.0081H45.0101C48.3336 16.0081 51.4234 13.2849 51.9167 9.9412C52.4101 6.59753 50.1057 3.88079 46.7822 3.88079" fill="white"/>
</g>
<defs>
<clipPath id="clip0_3_44">
<rect width="184" height="26.2857" fill="white" transform="translate(0 0.857117)"/>
</clipPath>
</defs>
</svg>
