<svg xmlns="http://www.w3.org/2000/svg" width="45" height="46"><g fill="none" fill-rule="nonzero"><path fill="#FFF" d="M41.085 0H2.99C1.346 0 0 1.374 0 3.053v38.958c0 1.679 1.346 3.053 2.99 3.053h38.095c1.644 0 2.99-1.374 2.99-3.053V3.053c0-1.68-1.346-3.053-2.99-3.053Zm2.003 42.01c0 1.1-.897 1.985-1.944 1.985H3.02c-1.076 0-1.944-.916-1.944-1.984V3.053c0-1.099.897-1.984 1.944-1.984h38.095c1.076 0 1.943.916 1.943 1.984l.03 38.958Z"/><path fill="#00205B" d="M43.088 42.01c0 1.1-.897 1.985-1.944 1.985H3.02c-1.076 0-1.944-.916-1.944-1.984V3.053c0-1.099.897-1.984 1.944-1.984h38.095c1.076 0 1.943.916 1.943 1.984l.03 38.958Z"/><g fill="#FFF"><path d="M27.12 36.942c.957-.396 1.436-1.068 1.436-2.167v-.183c-.09-1.466-1.226-2.168-2.572-2.168h-3.618v7.388h1.735v-2.656h1.226l1.345 2.656h1.944l-1.495-2.87Zm-1.435-1.038h-1.704v-2.167h1.704c.658 0 1.047.305 1.047 1.068.06.733-.329 1.1-1.047 1.1ZM13.127 32.454h-1.944l-1.226 3.237-1.345-2.382c-.27-.427-.897-.824-1.436-.824H6.19l2.99 5.343-.778 2.076H9.45c.508 0 1.076-.397 1.256-.885l2.422-6.565ZM18.33 36.607h-2.452l1.046-2.779c.12-.305.3-.305.389 0l1.017 2.779Zm.448 1.282.748 1.984h1.824l-2.422-6.503c-.18-.488-.778-.885-1.256-.885h-2.123l-2.721 7.388h.897c.508 0 1.076-.396 1.256-.885l.388-1.069h3.41v-.03ZM33.16 33.859c.12-.305.3-.305.39 0l1.046 2.778h-2.452l1.017-2.778Zm-1.464 4.03h3.378l.39 1.069c.179.488.747.885 1.255.885h.897l-2.78-7.389h-2.094c-.508 0-1.076.397-1.256.886l-2.422 6.503h1.824l.808-1.954Z"/></g><g fill="#FFF"><path d="M28.227 18.685c.09.061.299.061.508.061h3.2c-1.615-1.465-2.602-5.099-2.602-7.266 0-2.23.987-5.832 2.602-7.267h-3.2c-.18 0-.418 0-.508.061 0 0-2.87 2.779-2.87 7.206 0 4.427 2.87 7.205 2.87 7.205ZM21.32 18.685c.09.061.299.061.508.061h3.17c-1.615-1.465-2.602-5.099-2.602-7.266 0-2.23 1.047-5.832 2.602-7.267h-3.17c-.18 0-.419 0-.508.061 0 0-2.87 2.84-2.87 7.206.059 4.366 2.87 7.205 2.87 7.205ZM14.472 18.685c.09.061.3.061.479.061h3.2c-1.615-1.465-2.602-5.099-2.602-7.266 0-2.23.987-5.832 2.601-7.267h-3.2c-.179 0-.418 0-.478.061 0 0-2.87 2.779-2.87 7.206 0 4.427 2.87 7.205 2.87 7.205Z"/><path d="M36.958 24.486c-.478-1.008-1.345-2.748-1.465-3.328 0 0-.508-1.313.867-1.557.568-.092.957-.52.987-1.069v-.671c0-.092-.09-.184-.18-.184h-2.242c-.06 0-1.615.184-1.615 2.138-.06 3.327 0 3.724-.867 3.908-.09 0-.12-.092-.12-.123v-.091c0-1.77-1.375-3.206-3.14-3.206-.866 0-1.704.397-2.212.977 0 .061-.09.092-.12.092-.06 0-.12-.061-.12-.092-.567-.58-1.345-.977-2.212-.977-.867 0-1.704.397-2.213.977 0 .061-.09.092-.12.092-.059 0-.119-.061-.119-.092-.568-.58-1.345-.977-2.212-.977-.868 0-1.705.397-2.213.977 0 .061-.09.092-.12.092-.06 0-.12-.061-.12-.092-.567-.58-1.345-.977-2.212-.977-1.734 0-3.14 1.405-3.14 3.206v.091c0 .092-.09.123-.18.123-.866-.123-.806-.58-.866-3.908 0-1.954-1.555-2.138-1.615-2.138H7.057c-.09 0-.18.092-.18.184v.671c.06.58.39 1.008.987 1.069 1.376.214.867 1.557.867 1.557-.12.58-.987 2.29-1.465 3.328-.299.672-.957 2.26.06 3.847.568.916 1.256 1.74 3.678 1.74H33.43c2.422.061 3.14-.794 3.678-1.74.777-1.557.18-3.206-.15-3.847Zm-22.007.885c-1.047 0-1.854-.824-1.854-1.893 0-1.068.807-1.893 1.854-1.893 1.046 0 1.854.825 1.854 1.893.03 1.038-.868 1.893-1.854 1.893Zm4.724 0c-1.046 0-1.854-.824-1.854-1.893 0-1.068.808-1.893 1.854-1.893 1.047 0 1.854.825 1.854 1.893 0 1.038-.807 1.893-1.854 1.893Zm4.725 0c-1.047 0-1.854-.824-1.854-1.893 0-1.068.807-1.893 1.854-1.893 1.046 0 1.853.825 1.853 1.893 0 1.038-.807 1.893-1.853 1.893Zm4.754 0c-1.047 0-1.854-.824-1.854-1.893 0-1.068.807-1.893 1.854-1.893 1.046 0 1.854.825 1.854 1.893a1.845 1.845 0 0 1-1.854 1.893Z"/></g></g></svg>