<?xml version="1.0" encoding="UTF-8"?><svg id="Layer_2" xmlns="http://www.w3.org/2000/svg" viewBox="0 0 720.63 190.37"><defs><style>.cls-1{fill:#1933c5;}.cls-2{fill:#1bc25a;}</style></defs><g id="Layer_6"><path class="cls-2" d="m532.42,158.73h20.96v4.65h-15.33v8.51h11.39v4.65h-11.39v8.51h15.33v4.65h-20.96v-30.97Z"/><path class="cls-2" d="m558.41,158.73h5.32l14.49,21.58v-21.58h5.63v30.97h-5.32l-14.49-21.62v21.62h-5.63v-30.97Z"/><path class="cls-2" d="m590.62,158.73h20.96v4.65h-15.33v8.51h11.39v4.65h-11.39v8.51h15.33v4.65h-20.96v-30.97Z"/><path class="cls-2" d="m616.61,158.73h12.94c3.43,0,6.07.84,7.93,2.53,1.86,1.68,2.79,4.12,2.79,7.31,0,2.27-.56,4.21-1.68,5.8-1.12,1.6-2.72,2.73-4.78,3.41l6.29,11.92h-5.76l-5.98-11.34h-6.11v11.34h-5.63v-30.97Zm11.92,14.98c1.83,0,3.31-.43,4.43-1.28,1.12-.86,1.68-2.14,1.68-3.85,0-3.46-2.04-5.18-6.11-5.18h-6.29v10.32h6.29Z"/><path class="cls-2" d="m652.16,188.4c-2.51-1.31-4.46-3.19-5.85-5.63-1.39-2.44-2.08-5.28-2.08-8.53s.69-6.09,2.08-8.53c1.39-2.44,3.34-4.32,5.85-5.65,2.51-1.33,5.39-1.99,8.64-1.99,2.22,0,4.19.24,5.94.71,1.74.47,3.32,1.23,4.74,2.26v5.36c-1.3-1.12-2.79-1.93-4.47-2.44-1.68-.5-3.59-.75-5.72-.75s-4.05.45-5.78,1.35c-1.73.9-3.09,2.19-4.1,3.85-1,1.67-1.51,3.61-1.51,5.83s.47,4.2,1.42,5.87c.94,1.67,2.26,2.95,3.94,3.85,1.68.9,3.6,1.35,5.76,1.35,2.27,0,4.15-.38,5.63-1.15v-6.96h-5.23v-4.47h10.85v14.44c-2.75,2.13-6.57,3.19-11.47,3.19-3.25,0-6.13-.66-8.64-1.97Z"/><path class="cls-2" d="m678.54,158.73h5.63v30.97h-5.63v-30.97Z"/><path class="cls-2" d="m701.04,158.73h5.45l12.36,30.97h-5.72l-2.84-7.13h-13.11l-2.79,7.13h-5.76l12.41-30.97Zm7.71,19.18l-5.01-13.16-5.01,13.16h10.01Z"/><path class="cls-2" d="m80.88,0C36.21,0,0,36.21,0,80.88s36.21,80.88,80.88,80.88,80.88-36.21,80.88-80.88S125.56,0,80.88,0Zm68.22,64.71h-23.77c-4.29,0-8.4,1.7-11.44,4.74l-36.98,36.98c-.91.91-2.14,1.42-3.43,1.42H16.16c-1.44-3.46-2.62-7.07-3.5-10.78h23.77c4.29,0,8.4-1.7,11.44-4.74l36.98-36.98c.91-.91,2.14-1.42,3.43-1.42h57.32c1.44,3.46,2.62,7.07,3.5,10.78ZM80.88,10.78c19.88,0,37.82,8.28,50.58,21.57h-38.49c-4.29,0-8.4,1.7-11.44,4.74l-36.98,36.98c-.91.91-2.14,1.42-3.43,1.42H10.99C13.74,39.3,43.98,10.78,80.88,10.78Zm0,140.2c-19.88,0-37.82-8.28-50.58-21.57h38.49c4.29,0,8.4-1.7,11.44-4.74l36.98-36.98c.91-.91,2.14-1.42,3.43-1.42h30.14c-2.75,36.2-33,64.71-69.9,64.71Z"/><path class="cls-1" d="m206.54,100.06v-3.78h16.31v3.47c0,9.92,5.52,14.82,16.06,14.82s16.5-3.35,16.5-11.22c0-8.5-9.36-12.84-22.2-16.87-14.39-4.4-26.05-12.28-26.05-27.97s13.21-24.68,31.38-24.68,32.12,8.93,32.12,26.54v4.03h-16.37v-3.29c0-9.36-5.15-13.83-15.5-13.83s-15.81,3.47-15.81,11.16c0,8.62,9.05,12.4,21.52,16.62,16.37,5.52,26.85,12.03,26.85,27.72s-12.9,25.18-32.5,25.18-32.31-9.3-32.31-27.91Z"/><path class="cls-1" d="m275.93,93.67c0-20.03,14.45-34.05,35.29-34.05s35.29,14.02,35.29,34.05-14.45,34.23-35.29,34.23-35.29-14.2-35.29-34.23Zm54.08,0c0-12.65-7.57-20.65-18.79-20.65s-18.79,8-18.79,20.65,7.57,20.9,18.79,20.9,18.79-8.31,18.79-20.9Z"/><path class="cls-1" d="m371.27,126.6h-16.06V29.68h16.06v96.93Z"/><path class="cls-1" d="m460.25,60.74h16.31v8.81c3.72-5.95,9.92-9.92,18.79-9.92,5.33,0,8.5,1.05,9.24,1.55l-2.98,14.95c-.81-.56-3.35-1.74-7.57-1.74-13.46,0-17.49,10.36-17.49,19.47v32.74h-16.31V60.74Z"/><path class="cls-1" d="m539.63,128.03c-21.21,0-35.35-14.08-35.35-34.17s14.51-34.23,35.35-34.23,34.67,14.02,34.67,34.36c0,1.74-.12,4.09-.25,4.96h-53.27c1.67,10.17,8.43,16.12,19.41,16.12,11.6,0,16.43-4.96,16.93-9.24h16.25c-1.05,10.98-12.78,22.2-33.74,22.2Zm-18.67-40.68h36.46c-.68-7.94-6.39-14.95-17.61-14.95-9.92,0-16.87,5.46-18.85,14.95Z"/><path class="cls-1" d="m614.6,128.03c-21.21,0-35.35-14.08-35.35-34.17s14.51-34.23,35.35-34.23,34.67,14.02,34.67,34.36c0,1.74-.12,4.09-.25,4.96h-53.27c1.67,10.17,8.43,16.12,19.41,16.12,11.6,0,16.43-4.96,16.93-9.24h16.25c-1.05,10.98-12.78,22.2-33.74,22.2Zm-18.67-40.68h36.46c-.68-7.94-6.39-14.95-17.61-14.95-9.92,0-16.87,5.46-18.85,14.95Z"/><path class="cls-1" d="m720.63,84.93v41.67h-16.37v-37.02c0-9.71-4.08-16.56-15.1-16.56s-15.1,6.85-15.1,16.56v37.02h-16.37v-41.67c0-18.93,18.4-25.3,31.47-25.3s31.47,6.37,31.47,25.3Z"/><path class="cls-1" d="m432.65,60.74v7.69c-5.27-5.77-12.78-8.81-20.84-8.81-16.06,0-31.88,11.22-31.88,33.67s15.5,34.67,31.88,34.67c8.06,0,15.57-2.98,20.84-8.68v6.2c0,12.59-7.44,17.05-17.49,17.05-6.56,0-12.35-1.8-15.13-5.28-.4-.5-1.14-.53-1.6-.08l-9.85,9.85c6.33,5.45,16.36,7.66,26.27,7.66,16.62,0,34.17-7.32,34.17-29.21V60.74h-16.37Zm0,35.97c0,11.22-8.12,17.12-16.93,17.12-9.55,0-18.54-6.02-18.54-20.53s8.99-19.84,18.54-19.84c8.68,0,16.93,5.58,16.93,16.81v6.45Z"/></g></svg>